<?xml version="1.0" encoding="UTF-8"?>
<svg width="24px" height="24px" viewBox="0 0 24 24" version="1.1" xmlns="http://www.w3.org/2000/svg" xmlns:xlink="http://www.w3.org/1999/xlink">
    <!-- Generator: Sketch 51.1 (57501) - http://www.bohemiancoding.com/sketch -->
    <title>social / dribbble</title>
    <desc>Created with Sketch.</desc>
    <defs>
        <path d="M22.3910501,5.97643968 C21.3179426,4.13802351 19.8623407,2.68242827 18.0238614,1.60938034 C16.1850538,0.536387144 14.1777385,0 12.0003831,0 C9.82324665,0 7.81532933,0.536387144 5.97685004,1.60938034 C4.13826129,2.68226409 2.68265942,4.13785932 1.60955187,5.97643968 C0.536389591,7.8151295 0,9.82303767 0,12 C0,14.1770718 0.536553775,16.1846516 1.60938768,18.0234509 C2.68244051,19.861867 4.13804238,21.3174623 5.97663112,22.3906197 C7.81532933,23.4635581 9.82308247,24 12.0001642,24 C14.1772459,24 16.185218,23.4635581 18.0238067,22.3906197 C19.862286,21.3178454 21.3178331,19.861867 22.3908312,18.0234509 C23.4636651,16.1848158 24,14.1769623 24,12 C24.0000547,9.82281876 23.4636651,7.81485586 22.3910501,5.97643968 Z M12.0002189,1.75003078 C14.5834375,1.75003078 16.8387256,2.60416752 18.7657548,4.31238627 L18.5704304,4.58564216 C18.4923335,4.69520721 18.2970091,4.90590923 17.9846214,5.21856914 C17.672179,5.53095541 17.3310044,5.8280179 16.9612617,6.10920932 C16.5911906,6.3905102 16.0888966,6.71077727 15.4532303,7.07017472 C14.817783,7.42957217 14.1407423,7.74485901 13.4218894,8.01565215 C12.2240566,5.80711188 10.9429278,3.81753752 9.57828391,2.04681963 C10.401339,1.84892391 11.2085777,1.75003078 12.0002189,1.75003078 Z M3.9690969,5.64024682 C4.96903305,4.38008455 6.18760775,3.41118363 7.62525882,2.73420077 C8.91689546,4.45292725 10.187626,6.4218145 11.437724,8.64047942 C8.27104978,9.47381959 5.11488329,9.89051704 1.96900568,9.89035291 C2.3025184,8.31753068 2.96916075,6.90068273 3.9690969,5.64024682 Z M2.43758722,15.695604 C1.9791851,14.5237724 1.75003877,13.2917949 1.75003877,12 C1.75003877,11.8540957 1.75540211,11.7446948 1.76569099,11.6718521 C5.53672708,11.6718521 9.0420585,11.1876206 12.2816305,10.2186649 C12.6150338,10.8644529 12.8910821,11.4425974 13.1098301,11.953153 C13.0676347,11.9739496 13.0004287,11.9972636 12.9066248,12.0233688 C12.8125473,12.0494192 12.7450129,12.0674794 12.7029818,12.0780418 L12.1249989,12.2811367 C11.7289867,12.427041 11.2106026,12.6770923 10.5702298,13.0310717 C9.9296927,13.3855984 9.25002508,13.8072213 8.53122691,14.2969257 C7.81242874,14.7866847 7.07020696,15.4350997 6.30467104,16.2426631 C5.53902566,17.0498981 4.89580692,17.9168411 4.37496009,18.8438753 C3.54161612,17.9168411 2.89587989,16.8671072 2.43758722,15.695604 Z M12.0002189,22.2501334 C9.56263169,22.2501334 7.38554997,21.4687846 5.46880957,19.9064155 L5.7032098,20.0783702 C6.06775332,19.2760607 6.60414291,18.5051649 7.31265221,17.7657377 C8.02105206,17.0263104 8.70329189,16.4296679 9.35953591,15.9764123 C10.0157799,15.5235945 10.7292695,15.0965535 11.5002235,14.6950157 C12.2710133,14.294244 12.7967856,14.0387746 13.0783067,13.9297569 C13.3596089,13.8204107 13.5836108,13.7342692 13.7502577,13.6716606 L13.7813432,13.6559537 L13.8128118,13.6559537 C14.8333257,16.3330186 15.5628506,18.9269521 16.0001824,21.4373709 C14.7084911,21.9792855 13.3753706,22.2499692 12.0002189,22.2501334 Z M20.6256875,17.5391099 C19.8547882,18.7319569 18.8910273,19.7191369 17.7351163,20.5001026 C17.3076902,18.1043385 16.6413762,15.6613444 15.7348609,13.1719411 C17.8077951,12.848664 19.9379749,12.9999863 22.1255097,13.6247589 C21.8962539,15.0414426 21.3962037,16.3464817 20.6256875,17.5391099 Z M22.094041,11.8594043 C21.9898936,11.8387172 21.8595313,11.8150748 21.7033375,11.7891885 C21.5471437,11.7633023 21.3568542,11.7318885 21.1328523,11.6954398 C20.9091788,11.6589911 20.658798,11.625224 20.3829686,11.5939197 C20.1068656,11.5626702 19.8126477,11.5341023 19.4998769,11.5080518 C19.1874892,11.4818919 18.8540859,11.4612596 18.5001049,11.445498 C18.1455219,11.4299553 17.7863417,11.4220745 17.4216887,11.4220745 C17.0574188,11.4220745 16.6742678,11.4326369 16.2734396,11.453324 C15.8725019,11.473847 15.4845895,11.5107335 15.1096476,11.5627249 C15.078179,11.5105693 15.0392126,11.4245919 14.9923654,11.3047381 C14.945573,11.1850484 14.9114227,11.0937624 14.891228,11.0312633 C14.6930577,10.5937692 14.463802,10.0989205 14.2031323,9.54699066 C14.9219304,9.25512731 15.6070161,8.91931754 16.2584441,8.53901408 C16.90927,8.15871061 17.4297337,7.82038337 17.8206015,7.52353979 C18.211305,7.22636785 18.5810477,6.91124519 18.929939,6.57800763 C19.2790492,6.24471535 19.5052949,6.01305258 19.6098255,5.88280042 C19.7141372,5.75232935 19.8130307,5.62481358 19.9066704,5.49997948 L19.9223774,5.48421787 C21.4431604,7.33839565 22.2195324,9.47371013 22.2503991,11.8905991 L22.094041,11.8594043 Z" id="path-1"></path>
    </defs>
    <g id="social-/-dribbble" stroke="none" stroke-width="1" fill="none" fill-rule="evenodd">
        <mask id="mask-2" fill="white">
            <use xlink:href="#path-1"></use>
        </mask>
        <use id="Shape" fill="#B3B3B3" fill-rule="nonzero" xlink:href="#path-1"></use>
    </g>
</svg>