<?xml version="1.0" encoding="UTF-8"?>
<svg width="40px" height="40px" viewBox="0 0 40 40" version="1.1" xmlns="http://www.w3.org/2000/svg" xmlns:xlink="http://www.w3.org/1999/xlink">
    <!-- Generator: Sketch 51.1 (57501) - http://www.bohemiancoding.com/sketch -->
    <title>Shape</title>
    <desc>Created with Sketch.</desc>
    <defs></defs>
    <g id="Symbols" stroke="none" stroke-width="1" fill="none" fill-rule="evenodd">
        <g id="Icon-/-round-/-dribbble" fill="#FFFFFF" fill-rule="nonzero">
            <path d="M20,40 C8.954305,40 0,31.045695 0,20 C0,8.954305 8.954305,0 20,0 C31.045695,0 40,8.954305 40,20 C40,31.045695 31.045695,40 20,40 Z M20,8.5 C13.6589517,8.50023754 8.50023723,13.658752 8.5,20 C8.50023723,26.341248 13.6589517,31.5 20,31.5 C26.3410483,31.5 31.4997628,26.341248 31.5,20 C31.4997628,13.658752 26.3410483,8.50023754 20,8.5 Z M27.5663201,13.9283649 C28.8777049,15.5557816 29.6757328,17.6122036 29.7127401,19.8512972 C29.2762444,19.7629307 27.4273057,19.4165909 25.2180209,19.4165909 C24.5053943,19.4165909 23.755286,19.4529352 23.0032799,19.54534 C22.9399406,19.3914112 22.8758896,19.2365323 22.8097036,19.0811782 C22.6142294,18.6217673 22.404759,18.1661572 22.1865111,17.7179108 C25.5857211,16.3152111 27.2268498,14.3685347 27.5663201,13.9283649 Z M20,10.2996365 C22.4500691,10.2996365 24.6899561,11.2115694 26.4008293,12.7133252 C26.1296801,13.0836569 24.6612517,14.921063 21.383027,16.16247 C19.8659674,13.3839131 18.2041999,11.0847207 17.8089816,10.5504834 C18.5135425,10.3868153 19.2465705,10.2996365 20,10.2996365 Z M15.826722,11.2436379 C16.1616849,11.7049492 17.8246385,14.0288462 19.3808404,16.7853115 C15.2042412,17.8841919 11.494977,17.9564054 10.6001609,17.9564054 C10.5636281,17.9564054 10.5320771,17.9564054 10.5052705,17.9564054 C11.1479155,14.988288 13.151051,12.5218644 15.826722,11.2436379 Z M10.2844132,20.0149653 C10.2844132,19.9351504 10.286311,19.8550979 10.2886833,19.7750454 C10.3468036,19.7759956 10.4319677,19.7769458 10.5434639,19.7769458 C11.7485715,19.7769458 15.9337108,19.6764645 20.2462405,18.3946749 C20.5079007,18.9077708 20.7574623,19.4279931 20.9885203,19.9477402 C20.8805825,19.9790961 20.7726448,20.010927 20.6658931,20.045371 C15.8105906,21.6160146 13.1408503,25.7730418 12.7304495,26.4521813 C11.209357,24.7361605 10.2844132,22.4821015 10.2844132,20.0149653 Z M20,29.7305317 C17.7707882,29.7305317 15.7157002,28.9746654 14.0743342,27.707841 C14.3516513,27.1629142 16.3656992,23.5308601 21.6873878,21.6761134 C21.6911834,21.6749256 21.6949791,21.6735004 21.6985375,21.6720751 C23.0319842,25.1511505 23.5972936,28.0708089 23.753151,28.9751405 C22.5978608,29.4613939 21.3296512,29.7305317 20,29.7305317 Z M25.5022175,28.0175989 C25.3719805,27.269334 24.8486602,24.5328224 23.6399942,21.195561 C24.3179858,21.0905664 24.9777111,21.0489961 25.5959218,21.0489961 C27.6263383,21.0487586 29.2148029,21.4939168 29.5839264,21.6062753 C29.1450585,24.2575085 27.6296594,26.5500496 25.5022175,28.0175989 Z" id="Shape"></path>
        </g>
    </g>
</svg>