<?xml version="1.0" encoding="UTF-8"?>
<svg width="24px" height="24px" viewBox="0 0 24 24" version="1.1" xmlns="http://www.w3.org/2000/svg" xmlns:xlink="http://www.w3.org/1999/xlink">
    <!-- Generator: Sketch 51.1 (57501) - http://www.bohemiancoding.com/sketch -->
    <title>social / instagram</title>
    <desc>Created with Sketch.</desc>
    <defs>
        <path d="M17.0284219,0 L6.971625,0 C3.12745312,0 0,3.12745312 0,6.971625 L0,17.028375 C0,20.8725469 3.12745312,24 6.971625,24 L17.028375,24 C20.8725469,24 24,20.8725469 24,17.0284219 L24,6.971625 C24,3.12745312 20.8725469,0 17.0284219,0 Z M22.125,17.028375 C22.125,19.8386719 19.8386719,22.125 17.0284219,22.125 L6.971625,22.125 C4.16132813,22.125 1.875,19.8386719 1.875,17.0284219 L1.875,6.971625 C1.875,4.16132813 4.16132813,1.875 6.971625,1.875 L17.028375,1.875 C19.8386719,1.875 22.125,4.16132813 22.125,6.971625 L22.125,17.028375 Z M12.1,6 C8.73642464,6 6,8.73642464 6,12.1 C6,15.4635754 8.73642464,18.2 12.1,18.2 C15.4635754,18.2 18.2,15.4635754 18.2,12.1 C18.2,8.73642464 15.4635754,6 12.1,6 Z M12.1,16.4318841 C9.71140797,16.4318841 7.76811594,14.488592 7.76811594,12.1 C7.76811594,9.71140797 9.71140797,7.76811594 12.1,7.76811594 C14.488592,7.76811594 16.4318841,9.71140797 16.4318841,12.1 C16.4318841,14.488592 14.488592,16.4318841 12.1,16.4318841 Z M18.3,6 C18.7970563,6 19.2,5.59705627 19.2,5.1 C19.2,4.60294373 18.7970563,4.2 18.3,4.2 C17.8029437,4.2 17.4,4.60294373 17.4,5.1 C17.4,5.59705627 17.8029437,6 18.3,6 Z" id="path-1"></path>
    </defs>
    <g id="social-/-instagram" stroke="none" stroke-width="1" fill="none" fill-rule="evenodd">
        <mask id="mask-2" fill="white">
            <use xlink:href="#path-1"></use>
        </mask>
        <use id="Combined-Shape" fill="#B3B3B3" fill-rule="nonzero" xlink:href="#path-1"></use>
    </g>
</svg>