<?xml version="1.0" encoding="UTF-8"?>
<svg width="40px" height="40px" viewBox="0 0 40 40" version="1.1" xmlns="http://www.w3.org/2000/svg" xmlns:xlink="http://www.w3.org/1999/xlink">
    <!-- Generator: Sketch 51.1 (57501) - http://www.bohemiancoding.com/sketch -->
    <title>Combined Shape</title>
    <desc>Created with Sketch.</desc>
    <defs></defs>
    <g id="Symbols" stroke="none" stroke-width="1" fill="none" fill-rule="evenodd">
        <g id="Icon-/-round-/-linkedin" fill="#FFFFFF" fill-rule="nonzero">
            <path d="M20,40 C8.954305,40 0,31.045695 0,20 C0,8.954305 8.954305,0 20,0 C31.045695,0 40,8.954305 40,20 C40,31.045695 31.045695,40 20,40 Z M29.5,21.9190816 C29.5,18.2279524 27.4907886,16.5103912 24.8106178,16.5104346 C22.6473274,16.5104346 21.6808438,17.6784559 21.1396678,18.4960924 L21.1396678,18.5349182 L21.1128984,18.5349182 C21.120673,18.5225685 21.1314073,18.5088321 21.1396678,18.4960924 L21.1396678,16.7927443 L17.0663808,16.7927443 C17.1212449,17.9208999 17.0663808,28.809649 17.0663808,28.809649 L21.1400654,28.809649 L21.1400654,22.0986506 C21.1400654,21.7390794 21.1677183,21.3815449 21.2751496,21.1246712 C21.5697461,20.4061355 22.2393802,19.6633338 23.3646252,19.6633338 C24.8386683,19.6633338 25.4276848,20.7655333 25.4276848,22.3805703 L25.4276848,28.809649 L29.5,28.809649 L29.5,21.9190816 Z M12.8051333,11 C11.411531,11 10.5,11.8966746 10.5,13.0758323 C10.5,14.229294 11.3851592,15.1531813 12.7510642,15.1531813 L12.7782754,15.1531813 C14.198868,15.1531813 15.0823485,14.2294673 15.0823485,13.0758323 C15.0555791,11.8966746 14.198868,11 12.8051333,11 Z M10.7419411,28.809649 L14.8140797,28.809649 L14.8140797,16.7927443 L10.7419411,16.7927443 L10.7419411,28.809649 Z" id="Combined-Shape"></path>
        </g>
    </g>
</svg>