<?xml version="1.0" encoding="UTF-8"?>
<svg width="40px" height="40px" viewBox="0 0 40 40" version="1.1" xmlns="http://www.w3.org/2000/svg" xmlns:xlink="http://www.w3.org/1999/xlink">
    <!-- Generator: Sketch 51.1 (57501) - http://www.bohemiancoding.com/sketch -->
    <title>Shape</title>
    <desc>Created with Sketch.</desc>
    <defs></defs>
    <g id="Symbols" stroke="none" stroke-width="1" fill="none" fill-rule="evenodd">
        <g id="Icon-/-round-/-mail" fill="#FFFFFF" fill-rule="nonzero">
            <path d="M20,40 C8.954305,40 0,31.045695 0,20 C0,8.954305 8.954305,0 20,0 C31.045695,0 40,8.954305 40,20 C40,31.045695 31.045695,40 20,40 Z M29.0664062,12 L10.9335938,12 C9.86874219,12 9,12.8285538 9,13.8461538 L9,26.1538462 C9,27.168 9.864875,28 10.9335938,28 L29.0664062,28 C30.1285938,28 31,27.1742359 31,26.1538462 L31,13.8461538 C31,12.832 30.135125,12 29.0664062,12 Z M28.7993984,13.2307692 L20.0409922,21.5931487 L11.206832,13.2307692 L28.7993984,13.2307692 Z M10.2890625,25.8989949 L10.2890625,14.0951385 L16.4971445,19.9716513 L10.2890625,25.8989949 Z M11.2005586,26.7692308 L17.4125508,20.8381538 L19.5892187,22.8985436 C19.8411875,23.1370667 20.2478008,23.1362872 20.4987383,22.8966564 L22.6210937,20.8702769 L28.7994414,26.7692308 L11.2005586,26.7692308 Z M29.7109375,25.9264678 L23.5,19.97 L29.7109375,14.0734911 L29.7109375,25.9264678 Z" id="Shape"></path>
        </g>
    </g>
</svg>